<?xml version="1.0" standalone="no"?>
<!DOCTYPE svg PUBLIC "-//W3C//DTD SVG 20010904//EN"
 "http://www.w3.org/TR/2001/REC-SVG-20010904/DTD/svg10.dtd">
<svg version="1.0" xmlns="http://www.w3.org/2000/svg"
 width="1080.000000pt" height="1080.000000pt" viewBox="0 0 1080.000000 1080.000000"
 preserveAspectRatio="xMidYMid meet">
<metadata>
Created by potrace 1.14, written by Peter Selinger 2001-2017
</metadata>
<g transform="translate(0.000000,1080.000000) scale(0.100000,-0.100000)"
fill="#000000" stroke="none">
<path d="M6735 10740 c-319 -16 -520 -72 -815 -228 -80 -42 -190 -95 -245
-117 l-99 -42 -176 88 c-365 182 -416 193 -920 186 -353 -4 -371 -5 -544 -35
-98 -18 -249 -36 -335 -41 -174 -11 -224 -23 -488 -114 -170 -59 -215 -79
-301 -134 -30 -19 -129 -77 -220 -129 -328 -189 -427 -266 -607 -476 -114
-132 -174 -221 -231 -342 -50 -105 -72 -194 -105 -426 -25 -175 -31 -439 -10
-463 9 -12 -1 -34 -50 -113 -116 -183 -210 -383 -330 -703 -106 -280 -167
-529 -206 -841 -25 -205 -25 -902 1 -1200 9 -113 21 -282 25 -376 6 -124 13
-179 25 -202 32 -62 32 -62 348 -62 l287 0 5 -52 c2 -29 12 -134 21 -232 9
-99 25 -231 35 -294 11 -63 20 -136 20 -163 0 -59 21 -113 48 -128 31 -16 119
-13 234 8 129 25 250 43 254 38 2 -1 -4 -27 -12 -57 -22 -80 -27 -230 -12
-345 l13 -100 63 -7 c92 -10 150 -47 266 -168 153 -159 172 -177 234 -222 31
-23 101 -84 157 -136 115 -109 182 -161 245 -192 65 -33 200 -121 200 -131 0
-12 -89 -57 -175 -88 -90 -34 -109 -64 -101 -162 2 -37 11 -82 19 -102 31 -72
314 -334 389 -359 13 -5 -27 -81 -87 -165 -52 -75 -64 -110 -71 -223 -6 -77
-3 -94 25 -178 17 -51 31 -109 31 -130 0 -21 12 -76 26 -123 23 -76 25 -95 21
-209 -4 -99 -10 -141 -30 -200 -14 -41 -30 -113 -36 -160 -5 -47 -27 -141 -49
-210 -22 -69 -43 -147 -46 -175 -4 -27 -18 -85 -32 -128 -31 -99 -32 -152 -3
-167 28 -15 59 12 59 51 0 15 11 63 24 106 13 43 27 101 31 128 4 28 24 105
46 172 21 67 44 164 50 215 6 51 19 113 29 138 43 110 53 326 20 432 -11 34
-25 97 -30 139 -6 42 -21 108 -35 147 -46 133 -29 245 56 363 31 42 61 91 69
110 8 19 24 47 37 62 30 37 18 62 -34 72 -20 4 -51 14 -68 22 -92 47 -307 262
-325 325 -14 46 -12 104 3 115 6 5 35 18 62 28 76 27 158 70 179 93 l18 21 57
-28 c134 -68 328 -143 481 -186 210 -60 254 -81 425 -197 77 -52 163 -103 190
-113 28 -10 87 -33 132 -52 54 -22 98 -33 131 -33 33 0 139 27 325 85 464 142
562 161 897 175 461 20 469 20 588 51 63 17 150 36 194 44 94 16 154 49 261
143 115 102 152 130 139 105 -10 -17 -8 -26 7 -44 16 -20 21 -21 47 -11 24 10
46 9 113 -3 118 -23 211 -54 453 -151 256 -103 261 -106 423 -214 71 -48 185
-117 251 -154 67 -37 148 -90 180 -118 62 -53 148 -98 189 -98 36 0 51 22 81
118 19 61 31 134 40 242 8 85 25 254 39 375 36 320 43 435 50 780 7 318 0 449
-31 584 -8 35 -14 65 -12 66 6 6 265 -35 410 -64 81 -17 174 -42 208 -56 57
-24 64 -25 85 -11 49 32 45 120 -12 281 -102 289 -136 399 -186 600 -30 121
-58 240 -62 264 l-7 44 48 -8 c62 -9 138 -50 173 -92 15 -18 62 -92 105 -165
89 -151 102 -168 126 -168 56 0 67 85 51 410 -27 530 -60 786 -137 1054 -19
67 -22 91 -13 96 6 5 57 20 113 35 213 56 311 87 328 102 41 37 17 172 -91
523 -32 107 -80 278 -105 380 -140 569 -385 1099 -777 1680 -132 195 -193 274
-310 402 -82 90 -528 518 -647 621 -107 93 -241 177 -524 325 -144 77 -334
182 -422 235 -218 133 -240 139 -496 142 -113 2 -272 -1 -355 -5z m556 -84
c80 -17 111 -32 294 -144 77 -47 244 -139 370 -205 370 -193 462 -255 655
-441 69 -67 202 -194 296 -283 247 -234 357 -365 547 -650 362 -543 601 -1065
733 -1603 25 -102 73 -273 106 -380 68 -223 108 -381 108 -427 0 -37 12 -31
-218 -93 -84 -22 -163 -45 -177 -50 -23 -9 -25 -6 -46 58 -30 91 -273 698
-459 1142 -208 499 -330 804 -374 935 -50 148 -100 209 -141 175 -21 -18 -18
-38 9 -71 14 -16 39 -72 56 -126 40 -123 123 -330 365 -913 526 -1267 592
-1462 639 -1910 24 -227 55 -770 43 -770 -3 0 -31 43 -63 97 -31 53 -75 116
-97 140 -52 56 -144 101 -224 109 -35 4 -63 8 -63 8 0 1 -9 51 -20 112 -11 60
-30 188 -41 284 -16 137 -37 240 -95 475 -79 314 -187 659 -230 733 -30 51
-65 72 -89 52 -17 -14 -21 -60 -5 -60 13 0 40 -56 75 -153 21 -59 25 -81 17
-89 -7 -7 -12 -30 -12 -52 0 -30 7 -47 27 -68 22 -23 28 -41 33 -100 l7 -73 2
65 c1 42 5 60 10 50 11 -19 137 -514 155 -611 8 -41 22 -137 30 -214 9 -77 25
-189 35 -250 11 -60 22 -123 24 -140 9 -53 73 -326 111 -467 44 -168 87 -303
137 -431 39 -100 76 -234 67 -242 -3 -3 -20 1 -39 9 -43 18 -299 68 -482 95
-76 11 -142 23 -147 26 -6 3 -10 18 -10 32 0 21 -3 24 -22 19 -13 -3 -31 -6
-40 -6 -12 0 -18 -8 -18 -21 0 -20 -4 -21 -62 -15 -109 11 -389 26 -492 26
-97 0 -98 0 -92 23 4 12 17 65 29 117 21 91 22 116 21 545 0 529 -19 836 -80
1325 -35 287 -50 602 -36 759 17 181 16 198 -13 226 -28 29 -38 31 -59 9 -13
-13 -16 -43 -16 -172 0 -134 -4 -178 -30 -304 -26 -131 -65 -252 -104 -327
-12 -23 -14 -12 -20 99 -3 69 -8 215 -11 325 -9 305 -33 459 -107 685 -39 121
-54 150 -77 150 -30 0 -38 -20 -50 -125 -32 -278 -110 -517 -248 -764 -41 -74
-47 -70 -57 38 -9 102 -23 153 -67 249 -48 103 -358 571 -420 634 -73 73 -186
121 -230 98 -16 -9 -19 -22 -19 -98 0 -141 18 -339 55 -597 29 -206 55 -412
55 -443 0 -5 -57 -12 -127 -14 -71 -3 -141 -11 -156 -17 -16 -6 -59 -17 -96
-25 -83 -17 -169 -59 -242 -118 -29 -25 -80 -63 -111 -86 l-58 -43 0 35 c0 19
-7 68 -15 110 -23 120 -34 216 -50 431 -20 265 -29 328 -75 535 -50 229 -59
279 -76 440 -30 294 -52 335 -134 253 -65 -66 -96 -182 -127 -468 -16 -147
-18 -263 -18 -850 0 -726 2 -761 54 -977 10 -43 16 -78 14 -78 -2 0 -29 13
-61 29 -127 64 -282 91 -525 91 l-168 0 17 33 c10 17 23 55 31 82 35 130 44
628 29 1575 l-8 555 36 23 c40 25 47 55 16 72 -48 26 -149 -67 -209 -193 -86
-182 -101 -276 -111 -727 -6 -256 -15 -425 -30 -565 -25 -228 -29 -405 -16
-652 7 -138 6 -173 -4 -173 -7 0 -60 14 -119 32 -108 33 -229 43 -292 26 l-26
-8 -6 108 c-13 216 -63 337 -188 456 -54 51 -79 82 -79 98 0 37 -37 201 -71
316 -39 131 -127 368 -209 562 -34 80 -93 222 -132 315 -38 94 -92 214 -120
268 -28 54 -47 101 -43 105 3 4 73 9 153 10 l147 4 208 -51 c114 -28 216 -51
227 -51 11 0 54 -11 96 -25 81 -26 139 -32 149 -14 4 5 4 20 1 32 -6 25 5 22
-432 127 -209 49 -215 50 -372 50 -92 0 -173 -5 -191 -11 -32 -11 -34 -10 -94
55 -34 36 -67 66 -73 66 -23 0 -42 -38 -63 -119 -12 -47 -21 -96 -21 -110 0
-19 -27 -54 -103 -131 -56 -58 -130 -129 -164 -158 -35 -30 -63 -62 -63 -71 0
-22 19 -41 40 -41 9 0 77 58 152 130 l135 129 7 -72 c24 -261 78 -530 162
-802 20 -66 43 -140 50 -165 l14 -45 -83 86 c-157 162 -282 331 -386 521 -30
53 -87 139 -127 190 -40 51 -79 104 -86 118 -6 14 -20 34 -29 45 -16 20 -43
87 -53 137 -4 15 -15 30 -27 33 -40 13 -46 -6 -48 -164 -1 -142 -2 -152 -31
-213 -28 -60 -50 -158 -50 -223 0 -25 7 -34 40 -52 l40 -21 1 71 c1 110 15 52
23 -93 18 -331 89 -886 151 -1181 11 -52 12 -75 4 -96 -17 -44 -30 -172 -23
-236 5 -42 12 -60 26 -68 25 -13 53 -4 65 23 8 19 12 12 27 -48 38 -151 131
-468 186 -634 92 -277 190 -510 291 -692 28 -50 47 -94 42 -98 -4 -4 -89 -14
-188 -23 -99 -9 -310 -39 -469 -67 -159 -27 -304 -50 -322 -50 -19 0 -42 -4
-52 -9 -27 -14 -350 -65 -417 -66 l-60 0 -3 45 c-1 25 -11 104 -22 175 -44
298 -66 564 -49 596 8 15 7 24 -3 36 -10 13 -14 166 -17 777 -7 1290 -7 1269
13 1391 21 132 66 276 112 366 37 69 37 94 1 105 -58 18 -154 -217 -194 -480
-18 -123 -18 -92 -12 -1363 l4 -773 -277 0 c-198 0 -279 3 -284 12 -4 6 -11
86 -15 177 -4 91 -15 252 -23 356 -52 626 -33 1154 55 1558 90 413 324 966
535 1269 30 42 54 83 54 91 0 24 -27 40 -56 33 l-27 -7 6 123 c8 180 52 466
88 573 38 112 81 190 175 314 165 220 309 347 559 493 66 39 183 108 260 153
185 109 181 108 363 170 245 84 292 95 457 106 83 5 236 24 340 42 l190 32
395 0 c353 0 402 -2 460 -18 165 -47 526 -217 516 -243 -8 -21 11 -54 31 -54
9 0 29 12 44 26 15 14 71 43 125 65 54 21 154 70 223 108 202 111 360 169 566
207 173 32 680 44 796 20z m-3931 -2381 c0 -13 -29 -29 -38 -21 -2 3 -1 17 2
31 6 22 9 25 21 15 8 -7 15 -18 15 -25z m119 -188 c52 -109 284 -662 357 -856
79 -207 165 -521 142 -521 -5 0 -28 11 -51 24 -23 13 -76 37 -117 52 -75 29
-76 29 -310 29 -233 0 -235 0 -290 -26 -136 -65 -244 -199 -284 -356 -21 -81
-53 -152 -60 -133 -9 25 -54 295 -75 450 -26 189 -58 512 -71 725 -5 94 -12
202 -15 241 -3 51 -1 76 10 90 9 12 17 16 23 9 29 -31 144 -190 167 -231 99
-175 129 -221 206 -324 90 -119 341 -394 385 -420 18 -11 28 -12 42 -4 29 19
20 105 -26 250 -61 195 -100 333 -127 452 -32 142 -75 453 -75 541 l0 69 48
30 c32 20 51 26 59 20 7 -6 35 -56 62 -111z m2431 -93 c5 -43 14 -124 20 -179
6 -55 30 -189 55 -296 52 -232 60 -289 80 -554 16 -215 28 -317 51 -435 8 -41
14 -102 14 -136 0 -56 -2 -62 -35 -91 -43 -38 -48 -82 -11 -110 23 -17 23 -20
14 -98 -5 -44 -14 -97 -21 -118 -17 -61 -4 -71 88 -75 l78 -3 -6 -47 c-19
-153 -40 -468 -58 -862 -15 -310 -22 -290 141 -398 200 -132 300 -190 386
-221 177 -65 372 -78 461 -33 50 26 141 132 208 244 71 117 211 535 226 678 7
65 21 128 36 165 26 63 37 126 53 285 5 52 16 113 24 135 21 55 19 100 -9 245
-13 69 -22 127 -20 129 7 6 90 -130 142 -230 96 -187 112 -278 89 -509 -8 -75
-6 -88 8 -103 21 -21 59 -22 79 -3 8 8 21 69 32 155 15 119 16 151 5 203 -19
100 -65 222 -126 336 -111 209 -180 295 -283 346 -27 14 -92 66 -143 115 -51
48 -108 96 -126 105 -41 21 -167 46 -233 46 -32 0 -49 4 -49 13 0 34 -32 292
-54 438 -30 193 -56 453 -56 550 0 77 2 78 75 29 46 -32 93 -95 282 -380 190
-287 202 -314 228 -549 23 -206 54 -230 138 -106 118 175 243 474 282 680 10
50 21 94 25 98 10 11 49 -154 65 -281 8 -59 20 -288 26 -510 l12 -403 -52
-109 c-45 -92 -51 -111 -41 -130 30 -56 114 17 146 128 9 31 45 118 80 192 34
74 72 158 82 185 l20 50 5 -35 c3 -19 10 -84 16 -145 6 -60 20 -182 30 -270
47 -385 71 -810 71 -1250 0 -362 -10 -458 -61 -599 -43 -120 -46 -118 152
-117 140 1 338 -8 525 -25 l72 -6 22 -117 c30 -153 34 -315 21 -701 -8 -230
-20 -400 -45 -630 -19 -173 -37 -351 -41 -395 -7 -100 -44 -245 -63 -245 -24
0 -69 29 -129 81 -32 28 -87 66 -123 84 -94 48 -199 111 -335 202 -136 91
-174 112 -283 153 -42 16 -144 56 -227 90 -174 71 -351 120 -447 123 -37 1
-64 5 -60 8 4 3 51 36 104 73 127 87 151 108 424 372 181 175 245 244 294 316
35 51 83 116 107 145 45 54 51 71 31 91 -33 33 -69 1 -190 -174 -64 -91 -116
-148 -290 -316 -268 -258 -304 -289 -448 -388 -65 -45 -153 -111 -195 -148
-172 -148 -204 -168 -302 -182 -37 -5 -106 -21 -153 -35 -95 -29 -207 -39
-580 -55 -365 -14 -465 -33 -924 -174 -159 -49 -297 -86 -320 -86 -23 0 -64
11 -91 24 -28 12 -68 29 -90 36 -68 22 -146 66 -250 140 -133 95 -208 130
-405 186 -247 70 -475 169 -630 274 -47 31 -122 76 -167 99 -58 30 -113 71
-190 142 -59 54 -135 120 -168 147 -33 26 -133 120 -221 209 -171 170 -232
215 -321 233 l-51 11 -7 96 c-9 110 -3 179 23 278 l18 70 294 52 c169 30 389
61 515 73 230 22 265 32 265 72 0 12 -27 69 -59 127 -69 121 -155 300 -149
307 3 2 19 -12 38 -32 44 -48 85 -64 171 -64 60 0 84 5 149 35 43 19 88 35
101 35 37 0 140 53 177 90 57 59 76 113 83 230 3 66 12 119 22 142 14 32 17
76 18 290 0 139 4 275 7 302 l7 50 170 43 c94 23 191 43 216 43 26 0 109 -18
185 -40 76 -22 145 -40 152 -40 7 0 25 12 39 26 l26 26 -9 187 c-13 273 -9
462 16 681 16 140 24 298 30 560 5 201 14 394 20 430 11 67 65 239 79 253 11
11 34 -1255 27 -1485 -15 -446 -29 -528 -101 -593 -42 -39 -44 -57 -7 -85 25
-21 34 -22 157 -17 336 13 593 -43 701 -154 44 -45 79 -51 95 -16 8 18 4 50
-16 138 -42 182 -53 247 -64 369 -15 157 -16 1188 -2 1360 18 218 31 331 47
400 35 154 48 161 64 34z m-2690 -1329 c-30 -31 -50 -37 -50 -15 0 9 60 50 74
50 6 0 -5 -16 -24 -35z m671 -21 c59 -31 111 -64 114 -73 13 -33 18 -535 7
-670 -7 -75 -14 -179 -18 -232 l-6 -97 -44 -6 c-56 -7 -136 -48 -163 -82 -27
-35 -42 -90 -31 -118 13 -36 71 -80 146 -111 38 -16 69 -29 70 -29 0 -1 -3
-51 -6 -112 -5 -96 -10 -117 -34 -158 -32 -55 -82 -91 -151 -107 -27 -6 -79
-25 -115 -41 -35 -16 -87 -32 -116 -35 -82 -9 -114 8 -182 93 -51 65 -62 86
-80 159 -11 46 -39 126 -61 178 -22 52 -55 150 -73 218 l-32 124 -4 309 c-2
234 1 344 13 454 8 80 18 148 20 151 3 2 5 -25 5 -60 0 -80 14 -101 83 -127
28 -11 104 -45 167 -76 149 -73 190 -73 190 -1 0 45 43 124 93 172 55 52 67
93 67 227 0 91 2 106 16 106 9 0 65 -25 125 -56z m-771 -69 c0 -8 -7 -15 -15
-15 -9 0 -12 6 -9 15 4 8 10 15 15 15 5 0 9 -7 9 -15z m4149 -31 c46 -13 67
-28 135 -95 45 -44 106 -96 137 -115 l57 -35 7 -62 c3 -34 15 -104 26 -156 22
-106 24 -192 7 -224 -6 -12 -15 -65 -19 -117 -13 -157 -25 -222 -54 -290 -19
-45 -30 -94 -36 -160 -6 -72 -27 -174 -49 -235 0 0 -46 0 -103 0 l-102 0 -62
-44 c-53 -37 -63 -49 -63 -73 0 -46 23 -79 115 -166 l87 -82 -27 -47 c-43 -74
-121 -177 -164 -216 -48 -43 -115 -54 -228 -37 -179 27 -285 76 -574 265 -101
66 -107 72 -112 110 -6 40 8 399 18 465 3 19 10 130 15 246 8 185 15 264 36
392 l5 32 96 0 c95 0 96 0 155 -40 81 -54 116 -53 138 4 10 27 12 28 58 22 27
-3 86 -22 133 -41 103 -42 141 -44 176 -9 l26 26 -6 355 -6 355 62 -7 c34 -3
86 -13 116 -21z m-4216 -190 c-13 -116 -18 -238 -18 -451 0 -160 -1 -290 -3
-289 -6 6 -83 299 -107 406 l-25 110 33 67 c40 82 72 162 88 223 12 50 38 104
45 97 3 -3 -3 -76 -13 -163z m3472 116 c-3 -5 -11 -10 -16 -10 -6 0 -7 5 -4
10 3 6 11 10 16 10 6 0 7 -4 4 -10z m-2340 -80 c32 -62 55 -183 58 -299 l2
-94 -70 -18 c-38 -10 -71 -16 -74 -14 -2 2 4 45 13 94 10 58 16 144 16 246 0
142 2 156 16 144 8 -7 26 -34 39 -59z m-855 10 c0 -5 -5 -10 -11 -10 -5 0 -7
5 -4 10 3 6 8 10 11 10 2 0 4 -4 4 -10z m3010 -75 c-7 -9 -15 -13 -17 -11 -7
7 7 26 19 26 6 0 6 -6 -2 -15z m-89 -171 c7 -9 11 -39 10 -77 -3 -91 -6 -97
-51 -97 -21 0 -41 3 -43 8 -7 13 25 237 36 250 8 11 14 4 23 -28 7 -22 18 -47
25 -56z m764 -262 c-3 -3 -45 11 -95 31 -49 20 -104 37 -122 37 -65 0 -78 9
-78 50 0 59 19 71 98 64 79 -6 111 9 164 79 l33 44 3 -150 c1 -82 0 -152 -3
-155z m-570 118 c13 0 25 -7 29 -15 4 -13 -7 -15 -69 -15 l-75 0 0 40 0 39 46
-24 c26 -14 57 -25 69 -25z m-2455 -530 c0 -5 -13 -7 -29 -4 -21 5 -38 0 -59
-15 -32 -22 -58 -28 -46 -10 17 28 134 54 134 29z m3456 -516 c-3 -9 -6 -20
-6 -25 0 -20 -18 -7 -22 16 -4 20 -1 25 14 25 14 0 18 -5 14 -16z m-176 -74
c0 -5 -2 -10 -4 -10 -3 0 -8 5 -11 10 -3 6 -1 10 4 10 6 0 11 -4 11 -10z"/>
<path d="M6856 8410 c-22 -10 -72 -24 -113 -30 -41 -5 -88 -18 -106 -27 -24
-13 -66 -19 -177 -23 l-145 -5 0 -30 c0 -30 1 -30 70 -38 93 -10 206 0 266 23
27 11 75 23 107 26 31 4 79 16 105 27 36 15 60 18 99 14 65 -8 203 -73 256
-121 22 -20 82 -59 134 -87 51 -28 116 -68 143 -88 28 -21 95 -67 150 -103
110 -71 180 -140 209 -205 19 -43 36 -56 60 -47 26 10 27 36 1 91 -32 71 -128
165 -231 227 -43 27 -102 65 -129 86 -28 22 -93 62 -145 91 -52 29 -115 70
-139 91 -78 68 -267 148 -351 148 -14 0 -43 -9 -64 -20z"/>
<path d="M4643 4553 c-9 -3 -13 -31 -13 -89 0 -69 3 -86 16 -91 35 -13 49 11
52 88 2 61 0 76 -14 86 -19 14 -22 14 -41 6z"/>
<path d="M5510 3620 c-58 -33 -109 -60 -115 -60 -5 0 -43 -16 -83 -36 -59 -29
-87 -37 -153 -41 -70 -5 -86 -3 -125 16 -57 29 -86 22 -141 -31 l-42 -41 -68
6 c-49 3 -89 15 -143 40 -100 47 -154 61 -180 47 -38 -21 -18 -70 29 -70 13 0
65 -19 115 -42 88 -42 94 -43 193 -43 l102 0 39 38 c38 38 41 38 68 24 77 -39
230 -27 329 24 33 18 78 38 100 46 22 7 79 37 127 66 74 44 87 56 88 78 0 21
-17 40 -33 39 -1 0 -49 -27 -107 -60z"/>
<path d="M6461 2361 c-8 -5 -19 -24 -25 -43 -21 -64 -202 -158 -305 -158 -56
0 -141 -18 -301 -63 -134 -37 -155 -40 -275 -41 -71 -1 -136 -5 -142 -9 -17
-11 -16 -43 1 -70 8 -12 24 -56 35 -97 11 -41 27 -95 35 -119 9 -24 16 -55 16
-70 0 -14 9 -64 21 -111 l22 -85 -44 -90 c-44 -89 -44 -91 -47 -210 -2 -100 0
-126 15 -155 21 -40 75 -80 109 -80 37 0 57 -40 49 -97 -3 -27 -7 -68 -8 -93
-1 -41 -7 -50 -72 -116 -76 -78 -75 -77 -205 -94 -47 -6 -130 -26 -185 -45
-55 -18 -131 -41 -170 -50 -38 -8 -92 -26 -120 -39 -27 -14 -80 -37 -116 -54
-96 -43 -103 -55 -118 -216 -7 -75 -10 -140 -6 -146 3 -5 21 -10 39 -10 l32 0
13 132 c6 73 17 138 22 145 6 6 27 17 47 24 20 6 62 24 92 40 30 16 87 35 125
44 39 9 115 32 170 50 55 19 138 39 185 45 146 19 154 23 253 120 91 87 91 88
94 141 2 30 6 76 9 102 9 68 -11 131 -53 167 -18 17 -44 30 -56 30 -59 0 -82
67 -68 192 6 53 20 96 50 157 22 47 41 96 41 111 0 14 -9 57 -20 95 -11 38
-20 84 -20 101 0 17 -7 51 -16 75 -13 39 -54 183 -54 192 0 2 42 7 93 10 59 4
144 21 237 46 186 50 240 61 298 61 101 0 291 90 347 165 34 43 42 87 20 108
-19 19 -24 20 -44 8z"/>
<path d="M4375 2229 c-52 -37 -69 -43 -123 -47 -65 -5 -89 -22 -76 -56 15 -40
134 -32 203 14 25 16 65 39 89 50 38 17 43 24 40 47 -3 24 -8 28 -38 31 -28 2
-48 -6 -95 -39z"/>
<path d="M6328 2079 c-38 -21 -12 -144 62 -306 47 -101 67 -115 198 -138 165
-30 269 -75 377 -165 33 -27 153 -146 267 -264 160 -167 242 -263 366 -428 89
-117 206 -262 262 -323 169 -184 269 -330 286 -420 6 -34 8 -35 50 -35 l43 0
-16 53 c-20 69 -83 188 -137 260 -24 32 -93 113 -154 180 -126 140 -165 188
-315 391 -119 161 -499 566 -620 662 -115 90 -230 137 -430 175 -32 6 -65 19
-75 29 -25 27 -92 203 -99 261 -5 46 -23 80 -41 79 -4 0 -15 -5 -24 -11z"/>
<path d="M3210 1128 c-118 -60 -257 -127 -308 -148 -52 -22 -122 -57 -156 -79
-34 -21 -105 -60 -157 -86 -126 -63 -145 -78 -255 -211 -52 -62 -113 -128
-135 -146 -22 -18 -63 -68 -91 -110 -28 -43 -54 -78 -58 -78 -4 0 -26 -19 -49
-41 -45 -45 -71 -113 -71 -186 0 -42 1 -43 34 -43 37 0 46 12 46 61 0 46 25
94 65 125 20 16 60 63 88 104 28 41 72 94 99 118 26 24 86 90 133 148 91 110
131 142 235 191 36 17 102 53 147 80 46 28 124 67 175 88 51 20 118 52 148 70
31 19 109 58 175 88 168 75 207 101 203 135 -2 21 -9 27 -28 28 -14 1 -117
-45 -240 -108z"/>
</g>
</svg>
